<?xml version="1.0" encoding="UTF-8"?>
<svg id="uuid-2fecc770-23c4-495e-98db-f75a0f199395" data-name="Layer 2" xmlns="http://www.w3.org/2000/svg" viewBox="0 0 182.1 28">
  <defs>
    <style>
      .uuid-3b0f6761-3603-4acf-b250-c114e0ec2082 {
        fill: #220e5b;
      }

      .uuid-8b2c7628-e781-4759-8a1b-a685c3651788 {
        fill: #e1dbfd;
      }
    </style>
  </defs>
  <g id="uuid-c6c34d66-f128-4031-8dfa-acbbc9afcd7b" data-name="CTA">
    <g id="uuid-b9446173-6d34-4158-aa53-b791c3a1e38a" data-name="CTA">
      <path id="uuid-fa1ad5fc-6fe8-481a-92ef-dea3facca860" data-name="Background" class="uuid-8b2c7628-e781-4759-8a1b-a685c3651788" d="M9,0h164.1c5,0,9,4,9,9v10c0,5-4,9-9,9H9.4c-5.2,0-9.4-4.2-9.4-9.4v-9.6C0,4,4,0,9,0Z"/>
      <g id="uuid-2e868a66-4482-47bb-a775-f4378fa801e0" data-name="Sign up for insurance today">
        <path id="uuid-d96241d6-6d6c-41ef-abee-a433c51ab50f" data-name="s" class="uuid-3b0f6761-3603-4acf-b250-c114e0ec2082" d="M9.4,15.6h2.4c0,.7.6,1.2,1.6,1.2.8,0,1.3-.3,1.3-.8,0-.6-.7-.8-1.6-.9-1.5-.2-3.7-.4-3.7-2.6,0-1.7,1.5-2.8,3.7-2.8,2.3,0,3.8,1.2,3.8,3h-2.3c0-.8-.6-1.2-1.4-1.2-.8,0-1.3.3-1.3.8,0,.6.9.8,1.8.9,1.5.2,3.4.5,3.4,2.6,0,1.7-1.6,2.8-4,2.8-2.4,0-3.9-1.2-3.9-3Z"/>
        <path id="uuid-f281a271-9266-4d39-a2ef-d1d9f22084e6" data-name="i" class="uuid-3b0f6761-3603-4acf-b250-c114e0ec2082" d="M18,10.4c0-.7.5-1.2,1.3-1.2.8,0,1.3.5,1.3,1.2,0,.7-.5,1.2-1.3,1.2-.7,0-1.3-.5-1.3-1.2ZM18.2,18.5v-6.2s2.2,0,2.2,0v6.2s-2.2,0-2.2,0Z"/>
        <path id="uuid-bbbfe525-4aef-42fa-a8e4-c8836b6f363a" data-name="g" class="uuid-3b0f6761-3603-4acf-b250-c114e0ec2082" d="M21.3,19.1l2.2-.3c.1.5.6.9,1.2.8.8,0,1.3-.5,1.3-1.3v-.6s-.1,0-.1,0c-.5.5-1,.8-1.8.8-1.6,0-2.7-1.2-2.7-3.1,0-2.1,1.1-3.2,2.7-3.2.9,0,1.4.3,1.9.9h.1v-.8s2.2,0,2.2,0v6.2c0,1.9-1.3,3-3.4,3-1.9,0-3.2-.8-3.5-2.3ZM26,15.3c0-.8-.5-1.4-1.3-1.4-.7,0-1.2.6-1.2,1.4,0,.8.5,1.3,1.2,1.3.7,0,1.2-.6,1.2-1.3Z"/>
        <path id="uuid-0d2d980c-906e-4d59-b5cb-ec4ff104f46b" data-name="n" class="uuid-3b0f6761-3603-4acf-b250-c114e0ec2082" d="M29.3,18.4v-6.2s2.2,0,2.2,0v.9h.1c.5-.7,1-1.1,1.7-1.1,1.3,0,2.2,1,2.2,2.5v3.9s-2.2,0-2.2,0v-3.4c0-.6-.3-1-.9-1s-.9.4-.9,1v3.4s-2.2,0-2.2,0Z"/>
        <path id="uuid-bf71d8e1-320d-46e8-84d9-97405949fdd1" data-name="u" class="uuid-3b0f6761-3603-4acf-b250-c114e0ec2082" d="M45.6,12.2v6.2s-2.2,0-2.2,0v-.9h-.1c-.5.7-1,1.1-1.7,1.1-1.3,0-2.2-1-2.2-2.5v-3.9s2.2,0,2.2,0v3.4c0,.6.3,1,.9,1s.9-.4.9-1.1v-3.4s2.2,0,2.2,0Z"/>
        <path id="uuid-4f6821c4-624c-4d66-bf42-4adf13f0ba90" data-name="p" class="uuid-3b0f6761-3603-4acf-b250-c114e0ec2082" d="M53.6,15.3c0,2-1.1,3.3-2.7,3.3-.8,0-1.4-.3-1.8-.9h-.1s0,3.5,0,3.5h-2.2s0-8.9,0-8.9h2.2s0,.7,0,.7h.1c.4-.6,1-.9,1.8-.9,1.6,0,2.7,1.3,2.8,3.2ZM48.9,15.3c0,.8.5,1.4,1.3,1.4.7,0,1.2-.6,1.2-1.4,0-.8-.5-1.4-1.2-1.4-.7,0-1.2.6-1.2,1.4Z"/>
        <path id="uuid-e363a7f6-da86-481f-9bff-1ebbad596572" data-name="g" class="uuid-3b0f6761-3603-4acf-b250-c114e0ec2082" d="M57.8,18.4v-4.6s-.8,0-.8,0v-1.6s.8,0,.8,0v-.4c0-1.5.9-2.5,2.2-2.5.5,0,.9,0,1.4.2v1.7c-.2,0-.4,0-.6,0-.4,0-.7.3-.7.6v.4s1.3,0,1.3,0v1.6s-1.3,0-1.3,0v4.6s-2.2,0-2.2,0Z"/>
        <path id="uuid-57234ca0-74c6-4421-bc9d-47be89d6027a" data-name="o" class="uuid-3b0f6761-3603-4acf-b250-c114e0ec2082" d="M61.8,15.3c0-2,1.3-3.3,3.5-3.3,2.1,0,3.5,1.2,3.5,3.2,0,2-1.4,3.3-3.5,3.3-2.1,0-3.5-1.2-3.5-3.2ZM66.5,15.3c0-.8-.5-1.4-1.2-1.4-.7,0-1.2.6-1.2,1.4,0,.8.5,1.4,1.3,1.4.7,0,1.2-.6,1.2-1.4Z"/>
        <path id="uuid-0f92be98-dc8f-4037-be7e-0a20dbc9ecf1" data-name="r" class="uuid-3b0f6761-3603-4acf-b250-c114e0ec2082" d="M69.6,18.3v-6.2s2.2,0,2.2,0v.9h.1c.3-.6.8-1,1.4-1,.2,0,.5,0,.7.2v2c-.4-.2-.8-.2-1.1-.2-.7,0-1.2.5-1.2,1.3v3.1s-2.2,0-2.2,0Z"/>
        <path id="uuid-b3442656-310e-4dfd-9d84-a1d00d8ad2af" data-name="i" class="uuid-3b0f6761-3603-4acf-b250-c114e0ec2082" d="M77.6,10.2c0-.7.5-1.2,1.3-1.2.8,0,1.3.5,1.3,1.2,0,.7-.5,1.2-1.3,1.2-.7,0-1.3-.5-1.3-1.2ZM77.7,18.3v-6.2s2.2,0,2.2,0v6.2s-2.2,0-2.2,0Z"/>
        <path id="uuid-7999e841-05bf-4f4c-90be-9f952effd6d1" data-name="n" class="uuid-3b0f6761-3603-4acf-b250-c114e0ec2082" d="M81.1,18.3v-6.2s2.2,0,2.2,0v.9h.1c.5-.7,1-1.1,1.7-1.1,1.3,0,2.2,1,2.2,2.5v3.9s-2.2,0-2.2,0v-3.4c0-.6-.3-1-.9-1s-.9.4-.9,1v3.4s-2.2,0-2.2,0Z"/>
        <path id="uuid-7806600f-5359-45fd-824b-96ea6487af4b" data-name="s" class="uuid-3b0f6761-3603-4acf-b250-c114e0ec2082" d="M88.1,16.3h1.9c0,.5.5.9,1.2.9.5,0,.9-.2.9-.6,0-.4-.5-.5-1.2-.6-1.1-.1-2.8-.2-2.8-1.9,0-1.3,1.2-2.1,2.9-2.1,1.7,0,3,.8,3,2.1h-2c0-.4-.4-.7-1-.7-.5,0-.9.2-.9.6,0,.5.7.5,1.6.6,1.1.1,2.5.4,2.5,1.9,0,1.4-1.2,2.2-3.2,2.2-1.9,0-3-.8-3-2.2Z"/>
        <path id="uuid-7ad96a31-82e4-4474-babc-1564fa896856" data-name="u" class="uuid-3b0f6761-3603-4acf-b250-c114e0ec2082" d="M101.3,12.1v6.2s-2.2,0-2.2,0v-.9h-.1c-.5.7-1,1.1-1.7,1.1-1.3,0-2.2-1-2.2-2.5v-3.9s2.2,0,2.2,0v3.4c0,.6.3,1,.9,1,.5,0,.9-.4.9-1.1v-3.4s2.2,0,2.2,0Z"/>
        <path id="uuid-31b65e19-88a8-4c5f-9c69-23dbb3b4c4fa" data-name="r" class="uuid-3b0f6761-3603-4acf-b250-c114e0ec2082" d="M102.4,18.3v-6.2s2.2,0,2.2,0v.9h.1c.3-.6.8-1,1.4-1,.2,0,.5,0,.7.2v2c-.4-.2-.8-.2-1.1-.2-.7,0-1.2.5-1.2,1.3v3.1s-2.2,0-2.2,0Z"/>
        <path id="uuid-45c3b5a8-62de-4037-878a-328dea02b64b" data-name="a" class="uuid-3b0f6761-3603-4acf-b250-c114e0ec2082" d="M107.2,16.6c0-1.2,1-1.8,3-2.1h1.1c0-.1,0-.4,0-.4,0-.5-.3-.8-.8-.8-.5,0-.8.3-.8.8h-2.2c0-1.4,1.2-2.3,3-2.3,1.8,0,3,.9,3.1,2.3v4.1s-2.2,0-2.2,0v-.7s-.1,0-.1,0c-.3.6-1.1.9-1.9.9-1.2,0-2.1-.6-2.1-1.8ZM111.3,15.9v-.4s-1,.1-1,.1c-.7,0-.9.3-.9.7,0,.4.3.6.8.6.7,0,1.1-.5,1.1-1.1Z"/>
        <path id="uuid-ce2f28b4-1c24-4f2d-b77f-72d14dc34aa0" data-name="n" class="uuid-3b0f6761-3603-4acf-b250-c114e0ec2082" d="M114.5,18.2v-6.2s2.2,0,2.2,0v.9h.1c.5-.7,1-1.1,1.7-1.1,1.3,0,2.2,1,2.2,2.5v3.9s-2.2,0-2.2,0v-3.4c0-.6-.3-1-.9-1s-.9.4-.9,1v3.4s-2.2,0-2.2,0Z"/>
        <path id="uuid-ca6d9e6a-4723-4042-a709-b02451f76cc8" data-name="c" class="uuid-3b0f6761-3603-4acf-b250-c114e0ec2082" d="M121.5,15.1c0-2,1.4-3.3,3.4-3.3,1.8,0,3.1.9,3.3,2.5l-2.1.3c-.1-.6-.6-.9-1.2-.9-.7,0-1.2.6-1.2,1.5,0,.9.5,1.5,1.2,1.4.6,0,1-.4,1.2-.9l2.1.2c-.2,1.5-1.5,2.5-3.3,2.5-2,0-3.4-1.3-3.5-3.2Z"/>
        <path id="uuid-74e823de-555f-47da-b60d-bbdf12a2916d" data-name="e" class="uuid-3b0f6761-3603-4acf-b250-c114e0ec2082" d="M128.9,15.1c0-2,1.4-3.2,3.5-3.2,2,0,3.4,1.3,3.4,3.2,0,.2,0,.5,0,.6h-4.5c.1.7.6,1.1,1.3,1.1.5,0,.9-.3,1.1-.7l1.9.3c-.3,1.2-1.6,1.9-3.2,1.9-2.1,0-3.5-1.3-3.5-3.3ZM133.5,14.5c0-.6-.5-1.1-1.2-1.1-.6,0-1,.4-1.1,1.1h2.3Z"/>
        <path id="uuid-815b742d-e6c1-465a-9461-f2bc5762d060" data-name="t" class="uuid-3b0f6761-3603-4acf-b250-c114e0ec2082" d="M139.9,16v-2.4s-.8,0-.8,0v-1.6s.9,0,.9,0l.4-1.9h1.8s0,1.9,0,1.9h1.3s0,1.6,0,1.6h-1.3s0,2.3,0,2.3c0,.5.3.8.7.8.2,0,.4,0,.6,0v1.6c-.4.1-1,.2-1.4.2-1.4,0-2.2-1-2.2-2.4Z"/>
        <path id="uuid-29f83de8-cd62-4bef-b06e-ef19da98cef2" data-name="o" class="uuid-3b0f6761-3603-4acf-b250-c114e0ec2082" d="M143.9,15.1c0-2,1.3-3.3,3.5-3.3,2.1,0,3.5,1.2,3.5,3.2,0,2-1.4,3.3-3.5,3.3-2.1,0-3.5-1.2-3.5-3.2ZM148.7,15.1c0-.8-.5-1.4-1.3-1.4-.7,0-1.2.6-1.2,1.4,0,.8.5,1.4,1.3,1.4.7,0,1.2-.6,1.2-1.4Z"/>
        <path id="uuid-34c97f11-0e05-47d1-b1c3-362ae1a98cb3" data-name="f" class="uuid-3b0f6761-3603-4acf-b250-c114e0ec2082" d="M151.5,15.1c0-2,1.1-3.3,2.7-3.3.8,0,1.4.3,1.8.9h.1v-3.5s2.2,0,2.2,0v8.9s-2.2,0-2.2,0v-.7h-.1c-.4.6-1,.9-1.8.9-1.6,0-2.8-1.3-2.8-3.2ZM156.3,15.1c0-.8-.5-1.4-1.2-1.4-.7,0-1.2.6-1.2,1.4,0,.8.5,1.4,1.3,1.4.7,0,1.2-.6,1.2-1.4Z"/>
        <path id="uuid-40b6e5ec-a45d-44ee-bee9-ea25371c3bad" data-name="a" class="uuid-3b0f6761-3603-4acf-b250-c114e0ec2082" d="M159.2,16.5c0-1.2,1-1.8,3-2.1h1.1c0-.1,0-.4,0-.4,0-.5-.3-.8-.8-.8-.5,0-.8.3-.8.8h-2.2c0-1.4,1.2-2.3,3-2.3,1.8,0,3,.9,3.1,2.3v4.1s-2.2,0-2.2,0v-.7s-.1,0-.1,0c-.3.6-1.1.9-1.9.9-1.2,0-2.1-.6-2.1-1.8ZM163.3,15.8v-.4s-1,.1-1,.1c-.7,0-.9.3-.9.7,0,.4.3.6.8.6.7,0,1.1-.5,1.1-1.1Z"/>
        <path id="uuid-c0bdf041-eca7-4dc0-b8f2-365daa600de9" data-name="y" class="uuid-3b0f6761-3603-4acf-b250-c114e0ec2082" d="M166.5,20.7v-1.7c.3.1.7.2,1,.2.7,0,1-.5,1.2-.9l-3-6.3h2.4s1.4,3.4,1.4,3.4h.1l1.1-3.4h2.3s-2.3,6.5-2.3,6.5c-.6,1.7-1.4,2.5-2.7,2.5-.5,0-1.1,0-1.4-.2Z"/>
      </g>
    </g>
  </g>
</svg>