<?xml version="1.0" encoding="UTF-8"?>
<svg id="uuid-328a4283-f28b-4d8d-b3c5-e2b44952303a" data-name="Layer 2" xmlns="http://www.w3.org/2000/svg" viewBox="0 0 116.5 49.4">
  <defs>
    <style>
      .uuid-a35a4854-9a91-4625-b9cf-08ddc14f3ca8 {
        fill: #220e5b;
      }

      .uuid-9d46a22a-570c-4604-afe3-1c33c90c1ba1 {
        fill: #e1dbfd;
      }
    </style>
  </defs>
  <g id="uuid-7e7d5382-c06e-4f89-abe8-e3cd241edd82" data-name="Hero Text">
    <g id="uuid-0d5bd8c7-b2b2-4f96-af91-bd194b584b0e" data-name="Hero Text">
      <path id="uuid-4dbd89d1-2fe0-4ea6-a113-7295758e17d4" data-name="Top right rectangle" class="uuid-a35a4854-9a91-4625-b9cf-08ddc14f3ca8" d="M85.6.3l28.9,16.6c1.1.6,1.8,1.8,1.8,3l.2,6.2c0,1.8-1.4,3.4-3.3,3.4l-28.1.2c-1.7,0-3.1-1.4-3.1-3.1V2.3c0-1.8,1.9-2.9,3.5-2Z"/>
      <path id="uuid-b99723c1-4d5a-4f8c-a7c6-ddff7f645e11" data-name="Top left rectangle" class="uuid-a35a4854-9a91-4625-b9cf-08ddc14f3ca8" d="M2.2,0h82.2c.6,0,1,.5,1,1v28.6H2.6c-1.4,0-2.6-1.2-2.6-2.6V2.2C0,1,1,0,2.2,0Z"/>
      <g>
        <rect id="uuid-fe1914bc-4f9c-4ad4-9872-7431b7a8c19d" data-name="Bottom rectangle" class="uuid-a35a4854-9a91-4625-b9cf-08ddc14f3ca8" x="0" y="19.8" width="116.4" height="29.6" rx="2.6" ry="2.6"/>
        <g id="uuid-9647f5a9-db98-46d9-ab15-36d855bc3f65" data-name="Your health is important to us">
          <path id="uuid-1d650b5b-2982-4f99-ad9c-78efc656e129" data-name="y" class="uuid-9d46a22a-570c-4604-afe3-1c33c90c1ba1" d="M15.4,22v-2.9l-3-5.7h2.6l1.6,3.5h.1l1.5-3.5h2.7l-2.9,5.7v2.9h-2.5Z"/>
          <path id="uuid-f586fb20-fed2-4437-835d-0290a3fe2c4f" data-name="o" class="uuid-9d46a22a-570c-4604-afe3-1c33c90c1ba1" d="M19.7,18.9c0-2,1.4-3.2,3.5-3.2s3.5,1.2,3.5,3.2-1.4,3.3-3.5,3.3-3.5-1.2-3.5-3.3ZM24.4,18.9c0-.8-.5-1.4-1.2-1.4s-1.2.6-1.2,1.4.5,1.4,1.2,1.4,1.2-.6,1.2-1.4Z"/>
          <path id="uuid-f1e140f6-c6da-4ffc-a5d4-d6c1c6326a68" data-name="u" class="uuid-9d46a22a-570c-4604-afe3-1c33c90c1ba1" d="M33.7,15.8v6.2h-2.2v-.9h-.1c-.5.7-1,1.1-1.7,1.1-1.3,0-2.2-1-2.2-2.5v-3.9h2.2v3.4c0,.6.3,1,.9,1s.9-.4.9-1.1v-3.4h2.2Z"/>
          <path id="uuid-2b2659ea-568f-4118-875c-e36ab49c72fd" data-name="r" class="uuid-9d46a22a-570c-4604-afe3-1c33c90c1ba1" d="M34.8,22v-6.2h2.2v.9h.1c.3-.6.8-1,1.4-1s.5,0,.7.2v2c-.4-.2-.8-.3-1.1-.3-.7,0-1.2.5-1.2,1.3v3.1h-2.2Z"/>
          <path id="uuid-0606980f-4189-478b-a3ca-204a41b5ad05" data-name="h" class="uuid-9d46a22a-570c-4604-afe3-1c33c90c1ba1" d="M42.9,22v-8.9h2.2v3.6h.1c.5-.7,1-1,1.7-1,1.3,0,2.2,1,2.2,2.5v3.9h-2.3v-3.5c0-.6-.3-1-.9-1s-.9.4-.9,1.1v3.4h-2.2Z"/>
          <path id="uuid-10b0fb8a-1151-40cd-af6b-69b5e958ff04" data-name="e" class="uuid-9d46a22a-570c-4604-afe3-1c33c90c1ba1" d="M49.9,18.9c0-2,1.4-3.2,3.5-3.2s3.4,1.3,3.4,3.2,0,.5,0,.6h-4.5c.1.7.6,1.1,1.3,1.1s.9-.3,1.1-.7l1.9.3c-.3,1.2-1.6,1.9-3.2,1.9s-3.5-1.3-3.5-3.3ZM54.5,18.3c0-.6-.5-1.1-1.2-1.1s-1,.4-1.2,1.1h2.3Z"/>
          <path id="uuid-8d56151a-9329-4500-8b51-9c77a916ddcd" data-name="a" class="uuid-9d46a22a-570c-4604-afe3-1c33c90c1ba1" d="M57.3,20.4c0-1.2,1-1.8,3-2.1h1.1v-.4c0-.5-.3-.8-.8-.8s-.8.3-.8.8h-2.2c0-1.4,1.2-2.3,3-2.3s3,.9,3,2.3v4.1h-2.3v-.7h-.1c-.3.6-1.1.9-1.9.9-1.2,0-2.1-.6-2.1-1.8ZM61.4,19.7v-.4h-1c-.7.2-.9.5-.9.8s.3.6.8.6,1.1-.5,1.1-1.1Z"/>
          <path id="uuid-c5d10770-70d8-4009-af99-5d58db3f43df" data-name="l" class="uuid-9d46a22a-570c-4604-afe3-1c33c90c1ba1" d="M64.6,22v-8.9h2.2v8.9h-2.2Z"/>
          <path id="uuid-12d9d950-3635-494a-8e90-efe45baa0e09" data-name="t" class="uuid-9d46a22a-570c-4604-afe3-1c33c90c1ba1" d="M68.3,19.8v-2.4h-.8v-1.6h.9l.4-1.9h1.8v1.9h1.3v1.6h-1.3v2.3c0,.5.3.8.7.8s.4,0,.6,0v1.6c-.4.1-1,.2-1.4.2-1.4,0-2.2-1-2.2-2.4Z"/>
          <path id="uuid-c6b9cb11-5799-457f-965d-cc23c3958410" data-name="h" class="uuid-9d46a22a-570c-4604-afe3-1c33c90c1ba1" d="M72.7,22v-8.9h2.2v3.6h.1c.5-.7,1-1,1.7-1,1.3,0,2.2,1,2.2,2.5v3.9h-2.3v-3.5c0-.6-.3-1-.9-1s-.9.4-.9,1.1v3.4h-2.2Z"/>
          <path id="uuid-6e52b9c1-5bd9-4268-94e1-bf2620447887" data-name="i" class="uuid-9d46a22a-570c-4604-afe3-1c33c90c1ba1" d="M82.8,13.9c0-.7.5-1.2,1.3-1.2s1.3.5,1.3,1.2-.5,1.2-1.3,1.2-1.3-.5-1.3-1.2ZM82.9,22v-6.2h2.2v6.2h-2.2Z"/>
          <path id="uuid-2026b392-5748-4015-92c3-16485d4e546e" data-name="s" class="uuid-9d46a22a-570c-4604-afe3-1c33c90c1ba1" d="M86,20h1.9c0,.5.5.9,1.2.9s.9-.2.9-.6-.5-.5-1.2-.6c-1.1-.1-2.8-.2-2.8-1.9s1.2-2.1,2.9-2.1,3,.8,3,2.1h-2c0-.4-.4-.7-1-.7s-.9.2-.9.6.7.5,1.6.6c1.1.1,2.5.4,2.5,1.9s-1.2,2.2-3.2,2.2-3-.9-3-2.2Z"/>
          <path id="uuid-548c4bcd-9d6f-481b-91cc-d4bd7eef11b4" data-name="i" class="uuid-9d46a22a-570c-4604-afe3-1c33c90c1ba1" d="M12.7,28.3c0-.7.5-1.2,1.3-1.2s1.3.5,1.3,1.2-.5,1.2-1.3,1.2-1.3-.5-1.3-1.2ZM12.9,36.4v-6.2h2.2v6.2h-2.2Z"/>
          <path id="uuid-64e720cf-178d-4193-88e6-6159839d643e" data-name="m" class="uuid-9d46a22a-570c-4604-afe3-1c33c90c1ba1" d="M16.2,36.4v-6.2h2.2v1h.1c.4-.7,1-1.2,1.8-1.2s1.5.5,1.8,1.2h.1c.3-.7,1-1.2,1.9-1.2,1.3,0,2.2,1,2.2,2.4v3.9h-2.3v-3.4c0-.6-.3-1-.9-1-.5,0-.9.4-.9,1v3.4h-2.3v-3.4c0-.6-.3-1-.8-1s-.9.4-.9,1v3.4h-2.2Z"/>
          <path id="uuid-aef6da79-57fe-4484-8dfe-f1d46c8929e3" data-name="p" class="uuid-9d46a22a-570c-4604-afe3-1c33c90c1ba1" d="M34.3,33.3c0,2-1.1,3.3-2.7,3.3s-1.4-.3-1.8-.9h-.1v3.5h-2.2v-8.9h2.2v.7h.1c.4-.6,1-.9,1.8-.9,1.6,0,2.7,1.3,2.7,3.2ZM29.6,33.3c0,.8.5,1.4,1.2,1.4s1.2-.6,1.2-1.4-.5-1.4-1.2-1.4-1.2.6-1.2,1.4Z"/>
          <path id="uuid-eb9fa9e1-d6e9-4a7e-b129-c142dcab2e22" data-name="o" class="uuid-9d46a22a-570c-4604-afe3-1c33c90c1ba1" d="M35,33.3c0-2,1.4-3.2,3.5-3.2s3.5,1.2,3.5,3.2-1.4,3.3-3.5,3.3-3.5-1.2-3.5-3.3ZM39.7,33.3c0-.8-.5-1.4-1.2-1.4s-1.2.6-1.2,1.4.5,1.4,1.2,1.4,1.2-.6,1.2-1.4Z"/>
          <path id="uuid-82775e2e-19f6-4f0f-84d3-2febec28ba4f" data-name="r" class="uuid-9d46a22a-570c-4604-afe3-1c33c90c1ba1" d="M42.8,36.4v-6.2h2.2v.9h.1c.3-.6.8-1,1.4-1s.5,0,.7.2v2c-.4-.2-.8-.3-1.1-.3-.7,0-1.2.5-1.2,1.3v3.1h-2.2Z"/>
          <path id="uuid-645249b3-e16a-4f41-bfed-e30aab9ba591" data-name="t" class="uuid-9d46a22a-570c-4604-afe3-1c33c90c1ba1" d="M48.6,34.2v-2.4h-.8v-1.6h.9l.4-1.9h1.8v1.9h1.3v1.6h-1.3v2.3c0,.5.3.8.7.8s.4,0,.6,0v1.6c-.4.1-1,.2-1.4.2-1.4,0-2.2-1-2.2-2.4Z"/>
          <path id="uuid-fba91112-0e90-49e5-8e64-85e7a62babd2" data-name="a" class="uuid-9d46a22a-570c-4604-afe3-1c33c90c1ba1" d="M52.7,34.8c0-1.2,1-1.8,3-2.1h1.1v-.4c0-.5-.3-.8-.8-.8s-.8.3-.8.8h-2.2c0-1.4,1.2-2.3,3-2.3s3,.9,3,2.3v4.1h-2.3v-.7h-.1c-.3.6-1.1.9-1.9.9-1.2,0-2.1-.6-2.1-1.8ZM56.8,34.1v-.4h-1c-.7.2-.9.5-.9.8s.3.6.8.6,1.1-.5,1.1-1.1Z"/>
          <path id="uuid-9c1b1906-b208-4a07-aeba-a89e939b4d74" data-name="n" class="uuid-9d46a22a-570c-4604-afe3-1c33c90c1ba1" d="M60,36.4v-6.2h2.2v.9h.1c.5-.7,1-1.1,1.7-1.1,1.3,0,2.2,1,2.2,2.5v3.9h-2.2v-3.4c0-.6-.3-1-.9-1s-.9.4-.9,1v3.4h-2.2Z"/>
          <path id="uuid-332db918-5c6e-4f8b-909b-8dbcbe10f220" data-name="t" class="uuid-9d46a22a-570c-4604-afe3-1c33c90c1ba1" d="M67.7,34.2v-2.4h-.8v-1.6h.9l.4-1.9h1.8v1.9h1.3v1.6h-1.3v2.3c0,.5.3.8.7.8s.4,0,.6,0v1.6c-.4.1-1,.2-1.4.2-1.4,0-2.2-1-2.2-2.4Z"/>
          <path id="uuid-882a4602-f6de-4408-8ce7-bd0681ce5594" data-name="t" class="uuid-9d46a22a-570c-4604-afe3-1c33c90c1ba1" d="M75.4,34.2v-2.4h-.8v-1.6h.9l.4-1.9h1.8v1.9h1.3v1.6h-1.3v2.3c0,.5.3.8.7.8s.4,0,.6,0v1.6c-.4.1-1,.2-1.4.2-1.4,0-2.2-1-2.2-2.4Z"/>
          <path id="uuid-15d4bb05-9c65-4898-98b2-0d9652cb5cf1" data-name="o" class="uuid-9d46a22a-570c-4604-afe3-1c33c90c1ba1" d="M79.5,33.3c0-2,1.4-3.2,3.5-3.2s3.5,1.2,3.5,3.2-1.4,3.3-3.5,3.3-3.5-1.2-3.5-3.3ZM84.2,33.3c0-.8-.5-1.4-1.2-1.4s-1.2.6-1.2,1.4.5,1.4,1.2,1.4,1.2-.6,1.2-1.4Z"/>
          <path id="uuid-08666ac5-ca9d-44ae-81cd-a40e90c31462" data-name="u" class="uuid-9d46a22a-570c-4604-afe3-1c33c90c1ba1" d="M96.4,30.2v6.2h-2.2v-.9h-.1c-.5.7-1,1.1-1.7,1.1-1.3,0-2.2-1-2.2-2.5v-3.9h2.2v3.4c0,.6.3,1,.9,1s.9-.4.9-1.1v-3.4h2.2Z"/>
          <path id="uuid-50451cb0-daa7-4226-83db-54c1bcb00e39" data-name="s" class="uuid-9d46a22a-570c-4604-afe3-1c33c90c1ba1" d="M97.2,34.4h1.9c0,.5.5.9,1.2.9s.9-.2.9-.6-.5-.5-1.2-.6c-1.1-.1-2.8-.2-2.8-1.9s1.2-2.1,2.9-2.1,3,.8,3,2.1h-2c0-.4-.4-.7-1-.7s-.9.2-.9.6.7.5,1.6.6c1.1.1,2.5.4,2.5,1.9s-1.2,2.2-3.2,2.2-3-.9-3-2.2Z"/>
        </g>
      </g>
    </g>
  </g>
</svg>