<?xml version="1.0" encoding="UTF-8"?>
<svg id="uuid-5a1bb025-d021-400e-a1a9-724efafb22cd" data-name="Layer 2" xmlns="http://www.w3.org/2000/svg" viewBox="0 0 408.7 69.5">
  <defs>
    <style>
      .uuid-e6bcc30d-9742-4c6c-81bd-0102cadda0fe {
        fill: #220e5b;
      }
    </style>
  </defs>
  <g id="uuid-da0f8207-b5d8-4602-9b45-83819b764656" data-name="Deep Blue Logo">
    <g id="uuid-2d33a4ed-8cf8-475e-908a-5757561711a8" data-name="Nibble Health">
      <g>
        <path class="uuid-e6bcc30d-9742-4c6c-81bd-0102cadda0fe" d="M92.9,49V15h10.7l11.2,21.1h.5V15h9.4v34h-10.7l-11.2-21h-.5v21h-9.4Z"/>
        <path class="uuid-e6bcc30d-9742-4c6c-81bd-0102cadda0fe" d="M129,17c0-2.8,2.1-4.8,5-4.8s5.1,2,5.1,4.8-2.1,4.9-5.1,4.9-5-2-5-4.9ZM129.6,49v-24.5h8.9v24.5h-8.9Z"/>
        <path class="uuid-e6bcc30d-9742-4c6c-81bd-0102cadda0fe" d="M152.1,46.2h-.5v2.8h-8.9V13.6h8.9v13.8h.5c1.6-2.2,4-3.5,7.1-3.5,6.4,0,10.8,5.1,10.8,12.9s-4.4,12.9-10.9,12.9-5.5-1.2-7.1-3.5ZM161.2,36.8c0-3.1-2-5.4-4.9-5.4s-4.9,2.3-4.9,5.4,2.1,5.4,4.9,5.4,4.9-2.3,4.9-5.4Z"/>
        <path class="uuid-e6bcc30d-9742-4c6c-81bd-0102cadda0fe" d="M182.6,46.2h-.5v2.8h-8.9V13.6h8.9v13.8h.5c1.6-2.2,4-3.5,7.1-3.5,6.4,0,10.8,5.1,10.8,12.9s-4.4,12.9-10.9,12.9-5.5-1.2-7.1-3.5ZM191.6,36.8c0-3.1-2-5.4-4.9-5.4s-4.9,2.3-4.9,5.4,2.1,5.4,4.9,5.4,4.9-2.3,4.9-5.4Z"/>
        <path class="uuid-e6bcc30d-9742-4c6c-81bd-0102cadda0fe" d="M203.7,49V13.6h8.9v35.4h-8.9Z"/>
        <path class="uuid-e6bcc30d-9742-4c6c-81bd-0102cadda0fe" d="M215.8,36.7c0-7.8,5.7-12.8,13.8-12.8s13.4,5,13.4,12.9,0,1.9-.1,2.4h-17.9c.6,2.7,2.4,4.3,5,4.3s3.7-1.1,4.4-2.7l7.6,1.4c-1.2,4.6-6.3,7.4-12.5,7.4s-13.7-5.1-13.7-13ZM234,34.5c-.2-2.4-2.1-4.4-4.6-4.4s-4.1,1.7-4.6,4.4h9.2Z"/>
        <path class="uuid-e6bcc30d-9742-4c6c-81bd-0102cadda0fe" d="M258.3,49V15h10v12.5h11.6v-12.5h10v34h-10v-13.6h-11.6v13.6h-10Z"/>
        <path class="uuid-e6bcc30d-9742-4c6c-81bd-0102cadda0fe" d="M293.7,36.7c0-7.8,5.7-12.8,13.8-12.8s13.4,5,13.4,12.9,0,1.9-.1,2.4h-17.9c.6,2.7,2.4,4.3,5,4.3s3.7-1.1,4.4-2.7l7.6,1.4c-1.2,4.6-6.3,7.4-12.5,7.4s-13.7-5.1-13.7-13ZM311.9,34.5c-.2-2.4-2.1-4.4-4.6-4.4s-4.1,1.7-4.6,4.4h9.2Z"/>
        <path class="uuid-e6bcc30d-9742-4c6c-81bd-0102cadda0fe" d="M322.8,42.6c0-4.7,3.8-7.3,11.9-8.4l4.3-.5v-1.1c0-1.8-1.2-3-3.2-3s-3.3,1.2-3.3,3.3h-8.6c0-5.5,4.7-9,12-9s12.1,3.5,12.1,9v16.1h-8.9v-2.9h-.5c-1.4,2.3-4.3,3.5-7.5,3.5-4.8,0-8.2-2.6-8.2-7ZM338.9,39.9v-1.5l-3.9.6c-2.6.3-3.7,1.3-3.7,2.8s1.1,2.5,3.1,2.5,4.5-1.9,4.5-4.4Z"/>
        <path class="uuid-e6bcc30d-9742-4c6c-81bd-0102cadda0fe" d="M351.8,49V13.6h8.9v35.4h-8.9Z"/>
        <path class="uuid-e6bcc30d-9742-4c6c-81bd-0102cadda0fe" d="M366.5,40.2v-9.4h-3.1v-6.3h3.5l1.6-7.6h7v7.6h5.1v6.3h-5.1v8.9c0,1.9,1.1,3.2,2.9,3.2s1.6-.1,2.4-.3v6.2c-1.6.6-3.8.9-5.4.9-5.4,0-8.8-3.8-8.8-9.4Z"/>
        <path class="uuid-e6bcc30d-9742-4c6c-81bd-0102cadda0fe" d="M383.8,49V13.6h8.9v14.4h.5c1.9-2.8,4-4.1,6.9-4.1,5.1,0,8.6,4.1,8.6,9.8v15.3h-8.9v-13.7c0-2.3-1.3-4-3.4-4s-3.7,1.7-3.7,4.2v13.5h-8.9Z"/>
      </g>
      <g id="uuid-d9cf2e19-393f-44f1-ba43-4abac1b7eb9a" data-name="Logo">
        <path id="uuid-429f967a-c732-46e2-8eb5-8f0d5c406afd" data-name="bottom left" class="uuid-e6bcc30d-9742-4c6c-81bd-0102cadda0fe" d="M3.5,40.2l28.9,16.6c1.1.6,1.8,1.8,1.8,3l.2,6.2c0,1.8-1.4,3.4-3.3,3.4l-28.1.2c-1.7,0-3.1-1.4-3.1-3.1v-24.2c0-1.8,1.9-2.9,3.5-2Z"/>
        <path id="uuid-0fe3094d-5ec8-4b2f-bdf1-d20de88bc7d4" data-name="top right" class="uuid-e6bcc30d-9742-4c6c-81bd-0102cadda0fe" d="M64.1,29.3l-28.9-16.6c-1.1-.6-1.8-1.8-1.8-3l-.2-6.2c0-1.8,1.4-3.4,3.3-3.4L64.5,0c1.7,0,3.1,1.4,3.1,3.1v24.2c0,1.8-1.9,2.9-3.5,2Z"/>
        <path id="uuid-2f3f3a68-c6c3-4392-bf34-d544a2657e38" data-name="center shape" class="uuid-e6bcc30d-9742-4c6c-81bd-0102cadda0fe" d="M53.4,64.9L11.4,40.2c-1.2-.7-1.9-2-1.9-3.3l-.2-30c0-2.2,2.4-3.6,4.3-2.5l42.2,24.4c1.2.7,1.9,1.9,1.9,3.3l-.5,30.6c0,1.9-2.1,3.1-3.8,2.1Z"/>
      </g>
    </g>
  </g>
</svg>